HIERARCHY
ROOT SpineBase
{
  OFFSET 0.000000 0.000000 0.000000
  CHANNELS 6 Xposition Yposition Zposition Zrotation Xrotation Yrotation
  JOINT SpineMid
  {
    OFFSET 0.000000 31.671730 0.000000
    CHANNELS 3 Zrotation Xrotation Yrotation
    JOINT SpineShoulder
    {
      OFFSET -0.233885 23.627102 -0.861072
      CHANNELS 3 Zrotation Xrotation Yrotation
      JOINT Neck
      {
        OFFSET -0.147989 7.847270 -0.596787
        CHANNELS 3 Zrotation Xrotation Yrotation
        JOINT Head
        {
          OFFSET -5.430818 12.041123 3.891361
          CHANNELS 3 Zrotation Xrotation Yrotation
          End Site
          {
            OFFSET 0 0 0
          }
        }
      }
      JOINT ShoulderLeft
      {
        OFFSET -1.341874 -0.119636 -17.993827
        CHANNELS 3 Zrotation Xrotation Yrotation
        JOINT ElbowLeft
        {
          OFFSET -4.617688 -20.350613 17.753360
          CHANNELS 3 Zrotation Xrotation Yrotation
          JOINT WristLeft
          {
            OFFSET -5.362622 -24.098253 13.502423
            CHANNELS 3 Zrotation Xrotation Yrotation
            JOINT HandLeft
            {
              OFFSET -4.089048 -15.991431 9.431198
              CHANNELS 3 Zrotation Xrotation Yrotation
              JOINT HandTipLeft
              {
                OFFSET 0.793807 -7.092250 -0.195249
                CHANNELS 3 Zrotation Xrotation Yrotation
                End Site
                {
                  OFFSET 0 0 0
                }
              }
              JOINT ThumbLeft
              {
                OFFSET 1.068045 -1.714646 -2.879596
                CHANNELS 3 Zrotation Xrotation Yrotation
                End Site
                {
                  OFFSET 0 0 0
                }
              }
            }
          }
        }
      }
      JOINT ShoulderRight
      {
        OFFSET 9.137020 -3.679696 -11.578896
        CHANNELS 3 Zrotation Xrotation Yrotation
        JOINT ElbowRight
        {
          OFFSET 8.677208 -26.879407 -6.159078
          CHANNELS 3 Zrotation Xrotation Yrotation
          JOINT WristRight
          {
            OFFSET 0.960681 -23.164476 -5.017104
            CHANNELS 3 Zrotation Xrotation Yrotation
            JOINT HandRight
            {
              OFFSET -0.826177 -6.195169 -0.240525
              CHANNELS 3 Zrotation Xrotation Yrotation
              JOINT HandTipRight
              {
                OFFSET 0.098575 -7.264899 -1.649265
                CHANNELS 3 Zrotation Xrotation Yrotation
                End Site
                {
                  OFFSET 0 0 0
                }
              }
              JOINT ThumbRight
              {
                OFFSET -3.521740 -0.120215 1.256301
                CHANNELS 3 Zrotation Xrotation Yrotation
                End Site
                {
                  OFFSET 0 0 0
                }
              }
            }
          }
        }
      }
    }
  }
  JOINT HipLeft
  {
    OFFSET -5.518066 0.907075 0.080745
    CHANNELS 3 Zrotation Xrotation Yrotation
    JOINT KneeLeft
    {
      OFFSET -1.707677 -36.421172 2.761147
      CHANNELS 3 Zrotation Xrotation Yrotation
      JOINT AnkleLeft
      {
        OFFSET 10.007693 -34.587755 -0.848079
        CHANNELS 3 Zrotation Xrotation Yrotation
        JOINT FootLeft
        {
          OFFSET -2.660894 -7.320350 -5.082196
          CHANNELS 3 Zrotation Xrotation Yrotation
          End Site
          {
            OFFSET 0 0 0
          }
        }
      }
    }
  }
  JOINT HipRight
  {
    OFFSET 4.869586 1.469278 -7.192419
    CHANNELS 3 Zrotation Xrotation Yrotation
    JOINT KneeRight
    {
      OFFSET 1.692245 -31.658981 -11.954825
      CHANNELS 3 Zrotation Xrotation Yrotation
      JOINT AnkleRight
      {
        OFFSET 16.600725 -39.333334 9.561190
        CHANNELS 3 Zrotation Xrotation Yrotation
        JOINT FootRight
        {
          OFFSET 4.490579 -2.934246 -11.293982
          CHANNELS 3 Zrotation Xrotation Yrotation
          End Site
          {
            OFFSET 0 0 0
          }
        }
      }
    }
  }
}
MOTION
Frames: 9
Frame Time: 0.033333
19.173750 82.228615 329.097622 1.104606 -0.458252 39.296625 -0.189631 0.001430 -39.261316 -0.338317 -0.096975 0.007387 3.698294 17.473166 5.182038 0.000000 0.000000 0.000000 -9.270944 -10.019749 -5.341511 -21.237427 1.910667 -6.898380 -41.479998 26.173942 -10.618099 -13.121543 -37.766127 21.041672 0.000000 0.000000 0.000000 0.000000 0.000000 0.000000 -48.742794 -3.419657 10.757548 -30.898782 -19.747519 -12.395759 -1.984428 -1.196007 -9.389901 -14.052318 -12.571899 9.656266 0.000000 0.000000 0.000000 0.000000 0.000000 0.000000 0.324916 -3.475868 -38.860553 -6.036298 1.495235 -0.589278 -8.817570 -7.566519 11.100716 0.000000 0.000000 0.000000 3.012177 -8.592741 -42.732924 -17.026510 18.941354 10.697451 -7.637716 -36.237274 -3.963450 0.000000 0.000000 0.000000
18.286082 82.253594 329.896740 1.256151 -0.438888 33.627704 -0.268100 0.312674 -33.593779 -0.859595 0.327421 -0.025635 4.667111 17.829239 5.482183 0.000000 0.000000 0.000000 -11.491930 -8.732731 -8.204903 -20.297253 0.433701 -6.155925 -39.596686 35.037033 -5.080002 -22.468530 -45.849334 8.455965 0.000000 0.000000 0.000000 0.000000 0.000000 0.000000 -50.561160 -4.926106 10.098943 -29.842420 -19.433134 -12.331870 -0.647995 -1.694451 -10.298583 -15.928664 -12.271570 11.464148 0.000000 0.000000 0.000000 0.000000 0.000000 0.000000 1.250152 -3.300749 -33.145357 -5.844380 1.007622 -0.687230 -9.487960 -7.050267 10.931030 0.000000 0.000000 0.000000 4.859480 -6.711257 -36.947181 -16.228671 17.446438 10.386076 -1.531895 -27.052422 -9.342533 0.000000 0.000000 0.000000
17.579050 81.964999 330.488965 1.373287 -0.396452 31.485295 -0.221429 0.493072 -31.448829 -0.926890 0.092139 -0.032127 4.159098 18.698033 6.052015 0.000000 0.000000 0.000000 -14.881363 -5.349808 -11.674782 -17.127684 -3.425092 -4.551535 -40.263280 46.374300 2.839927 -26.830248 -52.908227 -2.096115 0.000000 0.000000 0.000000 0.000000 0.000000 0.000000 -52.143132 -5.769097 9.799077 -29.713085 -19.668393 -12.613387 1.148169 0.749685 -9.323826 -17.638959 -7.709112 17.935695 0.000000 0.000000 0.000000 0.000000 0.000000 0.000000 1.577693 -3.481703 -30.954308 -5.541326 1.380660 -0.650604 -9.974731 -6.981669 10.526115 0.000000 0.000000 0.000000 5.836783 -5.951505 -34.899217 -16.042864 16.716894 10.438104 3.526318 -20.363979 -13.969554 0.000000 0.000000 0.000000
17.115671 81.791543 330.570942 1.525038 -0.036158 29.130384 -0.148976 0.376951 -29.086398 -0.300824 -0.094842 0.025464 2.115411 19.443111 6.876817 0.000000 0.000000 0.000000 -20.409044 -0.146431 -16.518839 -11.304652 -7.426017 -1.196805 -37.471085 49.335717 4.824689 -35.937127 -56.815877 -14.947062 0.000000 0.000000 0.000000 0.000000 0.000000 0.000000 -54.216554 -6.444269 9.369625 -29.783239 -20.067402 -13.030621 2.281069 4.127466 -7.541737 -20.589869 -6.581177 21.543398 0.000000 0.000000 0.000000 0.000000 0.000000 0.000000 1.388246 -4.290561 -28.526086 -5.246135 2.297059 -0.596030 -10.257619 -6.980251 10.078833 0.000000 0.000000 0.000000 6.026839 -5.855341 -32.568144 -15.979759 16.655725 10.547889 7.261671 -16.242650 -17.411700 0.000000 0.000000 0.000000
16.622036 81.729142 330.665168 1.690424 0.278338 25.422664 -0.142616 0.330056 -25.373658 -0.285771 -0.138164 0.036609 1.102927 20.062577 7.592618 0.000000 0.000000 0.000000 -24.990624 6.434542 -21.319543 -4.499273 -11.590211 3.093836 -33.249083 48.341695 3.684695 -40.048933 -57.840074 -20.528964 0.000000 0.000000 0.000000 0.000000 0.000000 0.000000 -55.498286 -6.930594 9.103448 -28.810633 -20.144403 -13.310916 1.633716 6.378107 -5.833000 -19.698448 -1.317612 26.530254 0.000000 0.000000 0.000000 0.000000 0.000000 0.000000 1.488337 -5.028354 -24.731392 -5.158547 3.675280 -0.398232 -10.392939 -7.587980 9.407529 0.000000 0.000000 0.000000 6.393167 -5.342097 -28.868477 -15.869681 16.410771 10.581835 9.343986 -14.295352 -19.760555 0.000000 0.000000 0.000000
16.310499 81.548424 330.547894 1.879107 0.631547 24.600624 -0.069762 0.262215 -24.544678 -0.241749 -0.144085 0.054118 0.293709 20.962529 8.290800 0.000000 0.000000 0.000000 -28.885062 13.236769 -25.549797 3.267349 -14.884171 8.567698 -30.456959 45.240684 0.615618 -36.343077 -57.873878 -17.347569 0.000000 0.000000 0.000000 0.000000 0.000000 0.000000 -56.493710 -7.133697 8.953547 -27.132296 -19.980509 -13.392544 -2.360455 6.752084 -4.022002 -14.944249 3.400637 28.492489 0.000000 0.000000 0.000000 0.000000 0.000000 0.000000 0.746569 -6.161826 -23.859306 -4.317293 5.150698 -0.353535 -10.805494 -7.799029 8.927421 0.000000 0.000000 0.000000 6.206656 -5.713800 -28.069572 -15.892076 16.661261 10.741915 9.701071 -13.962771 -20.479716 0.000000 0.000000 0.000000
15.925368 81.337989 330.448440 2.034134 1.000032 25.313356 0.022906 0.228860 -25.252290 -0.169319 -0.086904 0.073512 -0.103216 21.727064 8.778624 0.000000 0.000000 0.000000 -31.548883 18.792663 -28.745041 9.003105 -16.099301 13.197998 -26.804233 37.264849 -3.996338 -36.395892 -52.664026 -12.802387 0.000000 0.000000 0.000000 0.000000 0.000000 0.000000 -56.868460 -7.152995 8.769742 -27.317466 -20.292005 -13.928125 -2.343174 8.385817 -2.880952 -15.345774 5.190576 30.513462 0.000000 0.000000 0.000000 0.000000 0.000000 0.000000 -0.064313 -7.292574 -24.541584 -3.607589 7.044527 -0.194207 -11.295296 -8.250885 8.222266 0.000000 0.000000 0.000000 5.927122 -6.423079 -28.833130 -16.039560 16.921934 10.921702 7.941053 -15.560481 -19.434946 0.000000 0.000000 0.000000
15.581650 81.177489 330.319427 2.203323 1.409059 28.347591 0.105048 0.210815 -28.283173 -0.115950 -0.027202 0.091298 -0.408911 22.041532 9.077948 0.000000 0.000000 0.000000 -32.958449 22.109320 -30.712895 10.979185 -15.574438 15.338244 -19.986661 21.771298 -7.693080 -37.714382 -41.791125 -3.633540 0.000000 0.000000 0.000000 0.000000 0.000000 0.000000 -57.266514 -7.291158 8.462460 -27.038169 -20.319194 -14.076741 -2.144343 7.563410 -3.469920 -16.644047 6.901401 33.044604 0.000000 0.000000 0.000000 0.000000 0.000000 0.000000 -1.330128 -8.354013 -27.596893 -2.827233 9.181904 -0.001167 -11.991176 -9.064693 7.540324 0.000000 0.000000 0.000000 5.011319 -7.708901 -31.914564 -16.250645 17.551375 11.141579 7.953897 -15.244081 -19.017172 0.000000 0.000000 0.000000
15.360225 81.064040 330.158334 2.385092 1.757862 28.121775 0.143438 0.187523 -28.054809 -0.084099 0.000945 0.106100 -1.344974 21.699779 9.402113 0.000000 0.000000 0.000000 -34.705858 20.042955 -31.719134 9.499609 -8.362601 16.149454 -10.023856 -3.013215 -8.104034 -43.632668 -18.917128 16.075572 0.000000 0.000000 0.000000 0.000000 0.000000 0.000000 -57.178326 -7.090694 8.414877 -27.128250 -20.043174 -13.939641 -1.246168 4.586200 -5.838231 -18.372955 5.524952 32.796063 0.000000 0.000000 0.000000 0.000000 0.000000 0.000000 -2.354091 -9.595867 -27.386506 -1.972489 11.768441 0.182891 -13.006161 -10.279965 7.014692 0.000000 0.000000 0.000000 4.795799 -8.024751 -31.710434 -16.440803 17.438914 11.123109 8.074899 -14.839522 -18.517994 0.000000 0.000000 0.000000
